<svg width="32" height="32" fill="none" xmlns="http://www.w3.org/2000/svg"><g clip-path="url(#clip0)"><path d="M32 15.467H0v16l32-15.911v-.09z" fill="#E5E2A8"/><path d="M0 31.467h32V15.556L0 31.466z" fill="#EFECCA"/><path d="M3.292 22.011h4.8V7.878h-4.8V22.01z" fill="#E07024"/><path d="M11.645 9.956c0-2.312.977-4.445 2.488-5.956V1.956h-4.8v20.088h4.8v-6.222c-1.51-1.51-2.488-3.555-2.488-5.866z" fill="#F99136"/><path d="M15.467 16.889v5.155h4.8v-3.733h-.178c-1.778 0-3.378-.533-4.622-1.422z" fill="#FCC251"/><path d="M28.355 9.956H20V1.6c-2.311 0-4.356.978-5.867 2.489V15.91c.356.356.8.711 1.334 1.067v-5.422h4.8V18.4c4.444-.178 8.088-3.911 8.088-8.444z" fill="#607C59"/><path d="M15.467 11.467v5.422a8.348 8.348 0 0 0 4.622 1.422h.178v-6.844h-4.8z" fill="#F9DABB"/><path d="M15.467 11.467v5.422a8.348 8.348 0 0 0 4.622 1.422h.178v-6.844h-4.8z" fill="#E2C650"/><path d="M11.644 9.956c0 2.31.978 4.444 2.49 5.955V4c-1.512 1.511-2.49 3.644-2.49 5.956z" fill="#EDB26B"/><path d="M11.644 9.956c0 2.31.978 4.444 2.49 5.955V4c-1.512 1.511-2.49 3.644-2.49 5.956z" fill="#E2C650"/><path d="M21.6 0v8.356h8.355A8.346 8.346 0 0 0 21.6 0z" fill="#436043"/><path d="M30.044 21.067h-28v1.955h28v-1.955z" fill="#A05F3C"/></g><defs><clipPath id="clip0"><path fill="#fff" d="M0 0h32v31.467H0z"/></clipPath></defs></svg>