<svg width="32" height="32" fill="none" xmlns="http://www.w3.org/2000/svg"><g clip-path="url(#clip0)"><path d="M32 15.733H0v16l32-15.91v-.09z" fill="#D3D3D3"/><path d="M0 31.733h32v-15.91L0 31.732z" fill="#E3E3E3"/><path d="M23.467 5.067l-11.911 7.022v13.867l-3.912-2.312V9.69l12.09-6.933 3.733 2.31z" fill="#8D8D8D"/><path d="M18.844 2.311L6.934 9.244V23.2l-3.912-2.311V6.933L15.2 0l3.644 2.311z" fill="#5F5F5F"/><path d="M15.911 16.533l.178.267v-1.956l12-6.933L24.356 5.6l-12.178 6.933V26.4l3.91 2.311v-6.489l-2.933-2.933 2.756-2.756z" fill="#C2C2C2"/><path d="M30.756 15.911L28 13.156l-7.733 7.822-4.178-4.178v5.422l4.178 4.178 10.489-10.489z" fill="#181818"/><path d="M15.911 16.533l-2.755 2.756 2.933 2.933V16.8l-.178-.267z" fill="#3A3A3A"/></g><defs><clipPath id="clip0"><path fill="#fff" d="M0 0h32v31.733H0z"/></clipPath></defs></svg>