<svg width="32" height="32" fill="none" xmlns="http://www.w3.org/2000/svg"><g clip-path="url(#clip0)"><path d="M32 15.733H0v16l32-15.91v-.09z" fill="#C1E0E5"/><path d="M0 31.733h32v-15.91L0 31.732z" fill="#D9EBED"/><path d="M23.467 5.067l-11.911 7.022v13.867l-3.912-2.311V9.689l12.09-6.933 3.733 2.31z" fill="#5EAAB7"/><path d="M18.844 2.311L6.934 9.244V23.2l-3.912-2.311V6.933L15.2 0l3.644 2.311z" fill="#22878C"/><path d="M15.911 16.533l.178.267v-1.956l12-6.933-3.733-2.31-12.178 6.932V26.4l3.91 2.311v-6.489l-2.932-2.933 2.755-2.756z" fill="#97C7D3"/><path d="M30.756 15.911L28 13.156l-7.733 7.822-4.178-4.178v5.422l4.178 4.178 10.489-10.489z" fill="#CB577D"/><path d="M15.911 16.533l-2.755 2.756 2.933 2.933V16.8l-.178-.267z" fill="#5B3DA5"/></g><defs><clipPath id="clip0"><path fill="#fff" d="M0 0h32v31.733H0z"/></clipPath></defs></svg>
