<svg viewBox="0 0 483.65 346" xmlns="http://www.w3.org/2000/svg" xmlns:xlink="http://www.w3.org/1999/xlink"><clipPath id="a"><path d="m-32.47 0h516.12v393.37h-516.12z"/></clipPath><g clip-path="url(#a)"><g fill="none" stroke="#00c9a7" stroke-miterlimit="10"><circle cx="383.31" cy="168.38" r="5.5"/><circle cx="438.14" cy="147.16" r="3"/><circle cx="342.81" cy="12.64" r="5.5"/><circle cx="176.06" cy="32.19" r="5.5"/><circle cx="433.64" cy="20.37" r="4.5"/><circle cx="367.72" cy="235.58" r="4.5"/><path d="m457.97 297.15 59.66 40.69"/><path d="m371.62 237.82 23.79 10.35"/><path d="m383.31 173.88-15.59 57.2"/><path d="m504.41 279.06-109-30.89"/><path d="m506.91 199.36-111.5 48.81"/><path d="m435.92 149.16-64.86 83.41"/><path d="m488.54 121.43-47.86 24.13"/><path d="m372.22 235.58 134.69-36.22"/><path d="m387.5 171.93 39.77 41.88"/><path d="m453.6 252.54 53.31-53.18"/><path d="m438.14 144.16-4.5-119.29"/><path d="m438.14 23.45 69.67 53.86"/><path d="m336.89 51.35 48.79-35.34"/><path d="m284.29 21.37 53.02-8.73"/><path d="m336.89 50.38 5.92-32.24"/><path d="m348.31 12.64 36.38 3.23"/><path d="m376.59 63.46 24.45-35.64"/><path d="m284.29 21.37 52.6 29.98"/><path d="m388.31 166.11 46.83-18.95"/><path d="m284.29 21.37-102.73 10.82"/><path d="m453.6 252.54-26.33-38.73"/><path d="m457.97 297.15-62.56-48.98"/><path d="m284.29 21.37-27.54-21.37"/><path d="m284.29 21.37 11.85-21.37"/><path d="m274.56 66.83 102.03-3.37"/><path d="m172.73 27.82-55.97-27.82"/><path d="m385.68 163.42 23.85-47.49" stroke-width=".7"/><path d="m359.16 149.32 50.37-33.39" stroke-width=".7"/><path d="m274.56 66.83 9.73-45.46" stroke-width=".7"/><path d="m234.39 37.56-52.83-5.37" stroke-width=".7"/><path d="m170.88 30.37-139.39-30.37" stroke-width=".7"/><path d="m179.39 27.82 23.65-27.82" stroke-width=".7"/><path d="m234.39 37.56v-37.56" stroke-width=".7"/><path d="m384.69 15.87-9.18-15.87" stroke-width=".7"/><path d="m409.53 115.93-50.37-32.4" stroke-width=".7"/><path d="m436.64 169.38 38.93-67.63" stroke-width=".7"/><path d="m453.6 209.79-16.96-40.41" stroke-width=".7"/><path d="m457.97 297.15-4.37-44.61" stroke-width=".7"/><path d="m399.78 29.66 75.79 72.09" stroke-width=".7"/><path d="m457.97 297.15 55.29-34.25" stroke-width=".7"/><path d="m453.6 252.54 64.03-6.55" stroke-width=".7"/><path d="m427.27 213.81 9.37-44.43" stroke-width=".7"/><path d="m475.57 158.08 31.34 41.28" stroke-width=".7"/><path d="m475.57 101.75-88.24 63.26" stroke-width=".7"/><path d="m274.56 66.83-40.17-29.27" stroke-width=".7"/><path d="m453.6 252.54v-42.75" stroke-width=".7"/><path d="m438.14 18.14 62.78-18.14" stroke-width=".7"/><path d="m411.2 112.1-9.29-84.28" stroke-width=".7"/><path d="m376.59 63.46 8.1-47.59" stroke-width=".7"/><path d="m475.57 101.75-64.37 10.35" stroke-width=".7"/><path d="m384.69 15.87 5.35-15.87" stroke-width=".7"/><path d="m517.63 54.72-42.06-22.53" stroke-width=".7"/><path d="m488.67 82.58-13.1 19.17" stroke-width=".7"/><path d="m475.57 158.08v-56.33" stroke-width=".7"/><path d="m436.64 169.38 68.05 29.98" stroke-width=".7"/><path d="m395.41 248.17v-35.52" stroke-width=".7"/><path d="m378.97 165.01-22.18-13.85" stroke-width=".7"/><path d="m395.41 248.17 31.86-34.36" stroke-width=".7"/><path d="m388.81 168.38 47.83 1" stroke-width=".7"/><path d="m356.79 151.16 2.37-67.63" stroke-width=".7"/><path d="m475.57 101.75 42.06 30.88" stroke-width=".7"/><path d="m436.64 169.38 80.99-23.64" stroke-width=".7"/><path d="m359.16 83.53 17.43-20.07" stroke-width=".7"/><path d="m401.91 27.82 27.35-6.45" stroke-width=".7"/><path d="m234.39 37.56 22.99-37.07" stroke-width=".7"/><path d="m284.29 21.37 1.2-21.37" stroke-width=".5"/><path d="m457.97 297.15 59.66 4.37" stroke-width=".5"/><path d="m427.27 213.81-31.86-1.16" stroke-width=".5"/><path d="m384.49 173.74 10.92 38.91" stroke-width=".5"/><path d="m475.57 101.75 42.06-3" stroke-width=".5"/><path d="m336.89 51.35 39.7 12.11" stroke-width=".5"/><path d="m175.06 26.78-12.93-26.78" stroke-width=".5"/><path d="m401.91 27.82-17.22-11.95" stroke-width=".5"/><path d="m431.45 17.01-19.72-17.01" stroke-width=".5"/><path d="m384.69 15.87 27.04-15.87" stroke-width=".5"/><path d="m475.57 32.19-7.71-32.19" stroke-width=".7"/><path d="m401.91 27.82 73.66 4.37" stroke-width=".7"/><path d="m517.63 0-42.06 32.19" stroke-width=".7"/></g><circle cx="457.97" cy="297.15" fill="#00c9a7" r="4.37"/><circle cx="453.6" cy="252.54" fill="#00c9a7" r="4.37"/><circle cx="395.41" cy="248.17" fill="#00c9a7" r="4.37"/><circle cx="395.41" cy="213.81" fill="#00c9a7" r="4.37"/><circle cx="436.64" cy="169.38" fill="#00c9a7" r="4.37"/><circle cx="356.79" cy="151.16" fill="#00c9a7" r="3"/><circle cx="475.57" cy="101.75" fill="#00c9a7" r="3"/><circle cx="234.39" cy="37.56" fill="#00c9a7" r="3"/><circle cx="475.57" cy="32.19" fill="#00c9a7" r="4.37"/><circle cx="401.91" cy="27.82" fill="#00c9a7" r="4.37"/><circle cx="376.59" cy="63.46" fill="#00c9a7" r="4.37"/><circle cx="284.29" cy="21.37" fill="#00c9a7" r="4.37"/><circle cx="385.68" cy="16.01" fill="#00c9a7" r="4.37"/><circle cx="359.16" cy="83.53" fill="#00c9a7" r="4.37"/><circle cx="274.56" cy="66.83" fill="#00c9a7" r="4.37"/><circle cx="76.51" cy="10.69" fill="#00c9a7" r="4.37"/><circle cx="336.89" cy="51.35" fill="#00c9a7" r="4.92"/><circle cx="475.57" cy="158.08" fill="#00c9a7" r="4.92"/><circle cx="411.2" cy="113.01" fill="#00c9a7" r="4.92"/><circle cx="453.6" cy="209.79" fill="#00c9a7" r="2.5"/><circle cx="427.27" cy="213.81" fill="#00c9a7" r="2.5"/></g></svg>