<svg viewBox="0 0 476.07 443.24" xmlns="http://www.w3.org/2000/svg" xmlns:xlink="http://www.w3.org/1999/xlink"><clipPath id="a"><path d="m0-14.82h476.07v458.06h-476.07z"/></clipPath><g clip-path="url(#a)"><g fill="none" stroke="#00c9a7" stroke-miterlimit="10"><circle cx="134.32" cy="274.86" r="5.5"/><circle cx="79.49" cy="296.08" r="3"/><circle cx="174.82" cy="430.6" r="5.5"/><circle cx="341.57" cy="411.05" r="5.5"/><circle cx="23.59" cy="321.81" r="5.5"/><circle cx="83.99" cy="422.86" r="4.5"/><circle cx="9.72" cy="164.17" r="3.5"/><circle cx="149.91" cy="207.66" r="4.5"/><path d="m4.37 105.39 5.35 55.28"/><path d="m59.66 146.09-59.66-40.7"/><path d="m146.01 205.42-23.79-10.35"/><path d="m134.32 269.36 15.59-57.2"/><path d="m13.22 164.17 109 30.9"/><path d="m10.72 243.88 111.5-48.81"/><path d="m81.71 294.07 64.86-83.41"/><path d="m23.59 316.31-12.87-70.56"/><path d="m29.09 321.81 47.86-24.13"/><path d="m145.41 207.66-134.69 36.22"/><path d="m130.13 271.31-39.77-41.88"/><path d="m64.03 190.7-53.31 53.18"/><path d="m79.49 299.08 4.5 119.28"/><path d="m79.49 419.78-69.67-53.85"/><path d="m180.74 391.88-48.79 35.35"/><path d="m233.34 421.86-53.02 8.74"/><path d="m180.74 392.86-5.92 32.24"/><path d="m169.32 430.6-36.38-3.24"/><path d="m141.04 379.78-24.45 35.63"/><path d="m233.34 421.86-52.6-29.98"/><path d="m23.59 327.31-13.77 38.62"/><path d="m129.32 277.13-46.83 18.95"/><path d="m233.34 421.86 102.73-10.81"/><path d="m64.03 190.7 26.33 38.73"/><path d="m59.66 146.09 62.56 48.98"/><path d="m233.34 421.86 27.54 21.38"/><path d="m341.57 416.55-14.25 26.69"/><path d="m233.34 421.86-11.85 21.38"/><path d="m243.07 376.41-102.03 3.37"/><path d="m344.9 415.41 23.4 27.83"/><path d="m131.95 279.82-23.85 47.49" stroke-width=".7"/><path d="m158.47 293.91-50.37 33.4" stroke-width=".7"/><path d="m243.07 376.41-9.73 45.45" stroke-width=".7"/><path d="m283.24 405.68 52.83 5.37" stroke-width=".7"/><path d="m346.75 412.86 70.09 30.38" stroke-width=".7"/><path d="m338.24 415.41-23.65 27.83" stroke-width=".7"/><path d="m283.24 405.68v37.56" stroke-width=".7"/><path d="m132.94 427.36 9.18 15.88" stroke-width=".7"/><path d="m108.1 327.31 50.37 32.39" stroke-width=".7"/><path d="m80.99 273.86-38.93 67.63" stroke-width=".7"/><path d="m64.03 233.45 16.96 40.41" stroke-width=".7"/><path d="m59.66 146.09 4.37 44.61" stroke-width=".7"/><path d="m10.72 243.88-10.72-26.59" stroke-width=".7"/><path d="m0 388.51 9.82-22.58" stroke-width=".7"/><path d="m117.85 413.58-75.79-72.09" stroke-width=".7"/><path d="m59.66 146.09-55.29 34.24" stroke-width=".7"/><path d="m64.03 190.7-64.03 6.55" stroke-width=".7"/><path d="m90.36 229.43-9.37 44.43" stroke-width=".7"/><path d="m42.06 285.16-31.34-41.28" stroke-width=".7"/><path d="m42.06 341.49 88.24-63.26" stroke-width=".7"/><path d="m243.07 376.41 40.17 29.27" stroke-width=".7"/><path d="m64.03 190.7v42.75" stroke-width=".7"/><path d="m79.49 425.1-62.78 18.14" stroke-width=".7"/><path d="m106.43 331.14 9.29 84.27" stroke-width=".7"/><path d="m141.04 379.78-8.1 47.58" stroke-width=".7"/><path d="m42.06 341.49 64.37-10.35" stroke-width=".7"/><path d="m132.94 427.36-5.35 15.88" stroke-width=".7"/><path d="m0 388.51 42.06 22.54" stroke-width=".7"/><path d="m28.96 360.65 13.1-19.16" stroke-width=".7"/><path d="m17.16 322.88-17.16 2.43" stroke-width=".7"/><path d="m42.06 285.16v56.33" stroke-width=".7"/><path d="m80.99 273.86-68.05-29.98" stroke-width=".7"/><path d="m10.72 243.88h-10.72" stroke-width=".7"/><path d="m0 267.19 10.72-23.31" stroke-width=".7"/><path d="m122.22 195.07v35.51" stroke-width=".7"/><path d="m138.66 278.23 22.18 13.85" stroke-width=".7"/><path d="m122.22 195.07-31.86 34.36" stroke-width=".7"/><path d="m128.82 274.86-47.83-1" stroke-width=".7"/><path d="m160.84 292.08-2.37 67.62" stroke-width=".7"/><path d="m42.06 341.49-42.06-30.88" stroke-width=".7"/><path d="m80.99 273.86-80.99 23.63" stroke-width=".7"/><path d="m158.47 359.7-17.43 20.08" stroke-width=".7"/><path d="m115.72 415.41-27.35 6.45" stroke-width=".7"/><path d="m283.24 405.68-22.99 37.07" stroke-width=".7"/><path d="m233.34 421.86-1.2 21.38" stroke-width=".5"/><path d="m59.66 146.09-59.66-4.37" stroke-width=".5"/><path d="m4.37 180.33-4.37-11.94" stroke-width=".5"/><path d="m90.36 229.43 31.86 1.15" stroke-width=".5"/><path d="m133.14 269.49-10.92-38.91" stroke-width=".5"/><path d="m42.06 341.49-42.06 3" stroke-width=".5"/><path d="m9.82 365.93-9.82.47" stroke-width=".5"/><path d="m28.96 360.65-28.96 27.86" stroke-width=".5"/><path d="m180.74 391.88-39.7-12.1" stroke-width=".5"/><path d="m342.57 416.45 12.93 26.79" stroke-width=".5"/><path d="m115.72 415.41 17.22 11.95" stroke-width=".5"/><path d="m86.18 426.23 19.72 17.01" stroke-width=".5"/><path d="m132.94 427.36-27.04 15.88" stroke-width=".5"/><path d="m42.06 411.05 7.71 32.19" stroke-width=".7"/><path d="m115.72 415.41-73.66-4.36" stroke-width=".7"/><path d="m0 443.24 42.06-32.19" stroke-width=".7"/></g><circle cx="59.66" cy="146.09" fill="#00c9a7" r="4.37"/><circle cx="4.37" cy="105.39" fill="#00c9a7" r="4.37"/><circle cx="64.03" cy="190.7" fill="#00c9a7" r="4.37"/><circle cx="10.72" cy="243.88" fill="#00c9a7" r="4.37"/><circle cx="122.22" cy="195.07" fill="#00c9a7" r="4.37"/><circle cx="122.22" cy="229.43" fill="#00c9a7" r="4.37"/><circle cx="80.99" cy="273.86" fill="#00c9a7" r="4.37"/><circle cx="4.37" cy="180.33" fill="#00c9a7" r="3"/><circle cx="160.84" cy="292.08" fill="#00c9a7" r="3"/><circle cx="42.06" cy="341.49" fill="#00c9a7" r="3"/><circle cx="283.24" cy="405.68" fill="#00c9a7" r="3"/><circle cx="42.06" cy="411.05" fill="#00c9a7" r="4.37"/><circle cy="388.51" fill="#00c9a7" r="4.37"/><circle cx="115.72" cy="415.41" fill="#00c9a7" r="4.37"/><circle cx="141.04" cy="379.78" fill="#00c9a7" r="4.37"/><circle cx="233.34" cy="421.86" fill="#00c9a7" r="4.37"/><circle cx="131.95" cy="427.23" fill="#00c9a7" r="4.37"/><circle cx="158.47" cy="359.7" fill="#00c9a7" r="4.37"/><circle cx="243.07" cy="376.41" fill="#00c9a7" r="4.37"/><circle cx="180.74" cy="391.88" fill="#00c9a7" r="4.92"/><circle cx="42.06" cy="285.16" fill="#00c9a7" r="4.92"/><circle cx="106.43" cy="330.22" fill="#00c9a7" r="4.92"/><circle cx="28.96" cy="359.7" fill="#00c9a7" r="4.37"/><circle cx="64.03" cy="233.45" fill="#00c9a7" r="2.5"/><circle cx="90.36" cy="229.43" fill="#00c9a7" r="2.5"/></g></svg>