<svg width="69" height="32" fill="none" xmlns="http://www.w3.org/2000/svg"><rect width="69" height="32" rx="4" fill="#15635E"/><path fill-rule="evenodd" clip-rule="evenodd" d="M42.261 21.938l-4.123-4.092a5.861 5.861 0 0 0 1.046-4.216c-.37-2.646-2.523-4.738-5.2-4.984-3.63-.37-6.708 2.707-6.338 6.369.246 2.646 2.338 4.83 4.984 5.2a5.861 5.861 0 0 0 4.216-1.046l4.092 4.092a.446.446 0 0 0 .646 0l.646-.646a.516.516 0 0 0 .031-.677zm-12.8-7.507a3.979 3.979 0 0 1 3.969-3.97 3.98 3.98 0 0 1 3.97 3.97 3.979 3.979 0 0 1-3.97 3.969 3.96 3.96 0 0 1-3.97-3.97z" fill="#000"/><mask id="a" maskUnits="userSpaceOnUse" x="27" y="8" width="16" height="16"><path fill-rule="evenodd" clip-rule="evenodd" d="M42.261 21.938l-4.123-4.092a5.861 5.861 0 0 0 1.046-4.216c-.37-2.646-2.523-4.738-5.2-4.984-3.63-.37-6.708 2.707-6.338 6.369.246 2.646 2.338 4.83 4.984 5.2a5.861 5.861 0 0 0 4.216-1.046l4.092 4.092a.446.446 0 0 0 .646 0l.646-.646a.516.516 0 0 0 .031-.677zm-12.8-7.507a3.979 3.979 0 0 1 3.969-3.97 3.98 3.98 0 0 1 3.97 3.97 3.979 3.979 0 0 1-3.97 3.969 3.96 3.96 0 0 1-3.97-3.97z" fill="#fff"/></mask><g mask="url(#a)"><path fill-rule="evenodd" clip-rule="evenodd" d="M27 8h16v16H27V8z" fill="#fff"/></g></svg>