<svg width="72" height="34" fill="none" xmlns="http://www.w3.org/2000/svg"><rect x="1.5" y="1" width="69" height="32" rx="4" fill="#15635E" filter="url(#filter0_d)"/><path fill-rule="evenodd" clip-rule="evenodd" d="M44.261 22.938l-4.123-4.092a5.861 5.861 0 0 0 1.046-4.216c-.37-2.646-2.523-4.738-5.2-4.984-3.63-.37-6.708 2.707-6.338 6.369.246 2.646 2.338 4.83 4.984 5.2a5.861 5.861 0 0 0 4.216-1.046l4.092 4.092a.446.446 0 0 0 .646 0l.646-.646a.516.516 0 0 0 .031-.677zm-12.8-7.508a3.979 3.979 0 0 1 3.969-3.969 3.98 3.98 0 0 1 3.97 3.97 3.979 3.979 0 0 1-3.97 3.969 3.96 3.96 0 0 1-3.97-3.97z" fill="#000"/><mask id="a" maskUnits="userSpaceOnUse" x="29" y="9" width="16" height="16"><path fill-rule="evenodd" clip-rule="evenodd" d="M44.261 22.938l-4.123-4.092a5.861 5.861 0 0 0 1.046-4.216c-.37-2.646-2.523-4.738-5.2-4.984-3.63-.37-6.708 2.707-6.338 6.369.246 2.646 2.338 4.83 4.984 5.2a5.861 5.861 0 0 0 4.216-1.046l4.092 4.092a.446.446 0 0 0 .646 0l.646-.646a.516.516 0 0 0 .031-.677zm-12.8-7.508a3.979 3.979 0 0 1 3.969-3.969 3.98 3.98 0 0 1 3.97 3.97 3.979 3.979 0 0 1-3.97 3.969 3.96 3.96 0 0 1-3.97-3.97z" fill="#fff"/></mask><g mask="url(#a)"><path fill-rule="evenodd" clip-rule="evenodd" d="M29 9h16v16H29V9z" fill="#fff"/></g><defs><filter id="filter0_d" x="0" y="0" width="72" height="34" filterUnits="userSpaceOnUse" color-interpolation-filters="sRGB"><feFlood flood-opacity="0" result="BackgroundImageFix"/><feColorMatrix in="SourceAlpha" values="0 0 0 0 0 0 0 0 0 0 0 0 0 0 0 0 0 0 127 0"/><feOffset/><feGaussianBlur stdDeviation="1.5"/><feColorMatrix values="0 0 0 0 0 0 0 0 0 0.513726 0 0 0 0 0.513726 0 0 0 1 0"/><feBlend in2="BackgroundImageFix" result="effect1_dropShadow"/><feBlend in="SourceGraphic" in2="effect1_dropShadow" result="shape"/></filter></defs></svg>