<svg width="14" height="14" fill="none" xmlns="http://www.w3.org/2000/svg"><path fill-rule="evenodd" clip-rule="evenodd" d="M13.826 11.442L7.661 1.481c-.323-.539-1.023-.539-1.346 0L.149 11.442c-.376.62 0 1.481.674 1.481h12.33c.673 0 1.077-.861.673-1.48z" fill="#000"/><mask id="a" maskUnits="userSpaceOnUse" x="0" y="1" width="14" height="12"><path fill-rule="evenodd" clip-rule="evenodd" d="M13.826 11.442L7.661 1.481c-.323-.539-1.023-.539-1.346 0L.149 11.442c-.376.62 0 1.481.674 1.481h12.33c.673 0 1.077-.861.673-1.48zm-6.838-.673a.793.793 0 0 1-.807-.808c0-.457.35-.807.807-.807.458 0 .808.35.808.807 0 .458-.35.808-.808.808zm.808-2.423c0 .162-.108.27-.27.27H6.45c-.162 0-.27-.108-.27-.27v-3.5c0-.161.108-.269.27-.269h1.077c.161 0 .27.108.27.27v3.5z" fill="#fff"/></mask><g mask="url(#a)"><path fill="#DA4842" d="M-1.367 0h16v14h-16z"/></g><path fill-rule="evenodd" clip-rule="evenodd" d="M6.988 10.77a.793.793 0 0 1-.807-.809c0-.457.35-.807.807-.807.458 0 .808.35.808.807 0 .458-.35.808-.808.808zM7.796 8.346c0 .162-.108.27-.27.27H6.45c-.162 0-.27-.108-.27-.27v-3.5c0-.161.108-.269.27-.269h1.077c.161 0 .269.108.269.27v3.5z" fill="#fff"/></svg>