<svg viewBox="0 0 364.99 79" xmlns="http://www.w3.org/2000/svg"><g fill-rule="evenodd"><path d="m43.22 18h10.71a7.14 7.14 0 0 1 5.07 2.13 7.29 7.29 0 0 1 2.11 5.13v10.74c.52 0 17.61-1 17.88-18.2v-.19a17.55 17.55 0 0 0 -17.46-17.61h-26.53c.7.4 8.22 5.05 8.22 18z" fill="#fff"/><path d="m18 35.76v-10.69a7.22 7.22 0 0 1 7.25-7.19h10.75s-.73-17.07-17.37-17.88h-1a17.54 17.54 0 0 0 -17.63 17.48v26.52c.27-.48 4.85-8.24 18-8.24z" fill="#fff"/><path d="m61 42.45v10.93a7.29 7.29 0 0 1 -7.24 7.35h-10.76c0 .77 1.15 18.2 18.48 18.27a17.72 17.72 0 0 0 17.52-17.84v-27.16c-.14.25-4.66 8.44-18 8.45z" fill="#fff"/><path d="m36.53 61h-10.91a7.29 7.29 0 0 1 -7.35-7.23v-10.77c-.27 0-17.7.84-18.27 17.75v.67a17.71 17.71 0 0 0 17.85 17.58h27.15s-8.46-4.46-8.47-18z" fill="#fff"/><path d="m110.32 18.31h4.53a5 5 0 0 1 4.89 5v28.69h12.57a5 5 0 0 1 4.89 5v3.58h-26.88z" fill="#e5e5e5"/><path d="m174 43.62a19.83 19.83 0 0 1 -1.11 6.75 14.75 14.75 0 0 1 -3.31 5.35 15 15 0 0 1 -5.47 3.55 23.08 23.08 0 0 1 -15.16 0 15.07 15.07 0 0 1 -5.48-3.55 14.86 14.86 0 0 1 -3.3-5.35 19.83 19.83 0 0 1 -1.17-6.75v-25.31h4.24a5 5 0 0 1 4.89 5v20a10 10 0 0 0 .61 3.55 8.41 8.41 0 0 0 1.73 2.82 7.7 7.7 0 0 0 2.66 1.86 8.38 8.38 0 0 0 3.37.67 8.09 8.09 0 0 0 3.33-.67 7.72 7.72 0 0 0 2.64-1.86 8.38 8.38 0 0 0 1.72-2.82 10 10 0 0 0 .62-3.55v-20a5 5 0 0 1 4.89-5h4.3z" fill="#e5e5e5"/><path d="m180.48 18.31h10.24a4.87 4.87 0 0 1 4.5 3.05l8.05 19.35 8.2-19.38a4.9 4.9 0 0 1 4.49-3h10.21v42.22h-4a5 5 0 0 1 -4.89-5v-27.4l-9.5 24.11a4.9 4.9 0 0 1 -4.54 3.13h-.14a4.9 4.9 0 0 1 -4.56-3.21l-9-24-.09 27.41a5 5 0 0 1 -4.89 5h-4z" fill="#fff"/><path d="m232.69 18.31h28.5v3.59a5 5 0 0 1 -4.89 5h-14.37v7.88h14a4.3 4.3 0 0 1 0 8.59h-14v8.63h15.44a5 5 0 0 1 4.89 5v3.58h-29.57z" fill="#fff"/></g><path d="m277.77 52h4.66a24.23 24.23 0 0 0 5.8-.66 12.08 12.08 0 0 0 4.63-2.17 10.43 10.43 0 0 0 3.09-4 14.61 14.61 0 0 0 1.12-6.06 12.17 12.17 0 0 0 -1.12-5.4 10.78 10.78 0 0 0 -3-3.79 13.25 13.25 0 0 0 -4.46-2.23 19.13 19.13 0 0 0 -5.39-.75h-5.3zm-9-33.65h13.48a37.51 37.51 0 0 1 9.31 1.13 21 21 0 0 1 7.69 3.67 17.92 17.92 0 0 1 5.22 6.59 22.91 22.91 0 0 1 1.93 9.85 20.65 20.65 0 0 1 -1.88 9 19.21 19.21 0 0 1 -5 6.56 22.09 22.09 0 0 1 -7.32 4 27.32 27.32 0 0 1 -8.7 1.37h-14.72z" fill="#fff"/><path d="m316.39 60.55h5.87v-37.23a5 5 0 0 0 -4.89-5h-5.86v37.23a4.94 4.94 0 0 0 4.88 5z" fill="#fff" fill-rule="evenodd"/><path d="m356.91 30.54a9 9 0 0 0 -3.34-2.6 10.74 10.74 0 0 0 -4.57-.94 11.3 11.3 0 0 0 -4.8 1 11.55 11.55 0 0 0 -3.84 2.88 13.27 13.27 0 0 0 -2.53 4.39 17 17 0 0 0 0 11.05 13.63 13.63 0 0 0 2.5 4.36 11.42 11.42 0 0 0 3.75 2.88 10.53 10.53 0 0 0 4.63 1 10.12 10.12 0 0 0 5-1.21 10 10 0 0 0 3.6-3.4l7.69 5.97a16.09 16.09 0 0 1 -6.72 5.63 20.41 20.41 0 0 1 -8.38 1.82 25.37 25.37 0 0 1 -9-1.57 20.66 20.66 0 0 1 -7.13-4.52 20.41 20.41 0 0 1 -4.77-7.12 24.75 24.75 0 0 1 -1.68-9.32 24.84 24.84 0 0 1 1.68-9.33 20.14 20.14 0 0 1 11.82-11.63 25.15 25.15 0 0 1 9-1.57 21.59 21.59 0 0 1 3.68.33 20.47 20.47 0 0 1 3.78 1.06 16.79 16.79 0 0 1 3.57 1.94 14.32 14.32 0 0 1 3.06 3z" fill="#fff" fill-rule="evenodd"/></svg>