<svg viewBox="0 0 29.87 29.87" xmlns="http://www.w3.org/2000/svg"><g fill="#00c9a7" fill-rule="evenodd"><path d="m16.34 6.81h4.05a2.72 2.72 0 0 1 1.92.8 2.76 2.76 0 0 1 .8 1.94v4.06c.19 0 6.66-.39 6.76-6.88v-.07a6.63 6.63 0 0 0 -6.61-6.66h-10c.24.15 3.08 1.91 3.08 6.81z"/><path d="m6.81 13.52v-4a2.73 2.73 0 0 1 2.74-2.76h4.06s-.28-6.45-6.61-6.76h-.35a6.63 6.63 0 0 0 -6.65 6.61v10c.1-.16 1.84-3.09 6.81-3.09z"/><path d="m23.06 16.05v4.13a2.75 2.75 0 0 1 -2.73 2.82h-4.07c0 .29.43 6.88 7 6.91a6.7 6.7 0 0 0 6.63-6.75v-10.31c-.08.15-1.78 3.2-6.83 3.2z"/><path d="m13.81 23.06h-4.12a2.75 2.75 0 0 1 -2.78-2.74v-4.06c-.09 0-6.7.31-6.91 6.71v.25a6.7 6.7 0 0 0 6.75 6.65h10.25s-3.19-1.69-3.19-6.81z"/></g></svg>