<svg viewBox="0 0 361.47 79.29" xmlns="http://www.w3.org/2000/svg" xmlns:xlink="http://www.w3.org/1999/xlink"><mask id="a" height="43.24" maskUnits="userSpaceOnUse" width="34.58" x="0" y="0"><path d="m0 0h34.58v43.24h-34.58z" fill="#fff"/></mask><mask id="b" height="36" maskUnits="userSpaceOnUse" width="42.28" x="33.83" y=".01"><path d="m33.83 0h42.28v36h-42.28z" fill="#fff"/></mask><mask id="c" height="44.01" maskUnits="userSpaceOnUse" width="35.2" x="40.89" y="35.28"><path d="m40.89 35.28h35.21v44h-35.21z" fill="#fff"/></mask><mask id="d" height="35.36" maskUnits="userSpaceOnUse" width="43.04" x="0" y="42.5"><path d="m0 42.5h43v35.36h-43z" fill="#fff"/></mask><g mask="url(#a)"><path d="m17.29 35.39v-10.39a7.24 7.24 0 0 1 7.15-7.32h10.14a17.49 17.49 0 0 0 -17.29-17.68 17.49 17.49 0 0 0 -17.29 17.69v25.55z" fill="#00c9a7" fill-rule="evenodd"/></g><g mask="url(#b)"><path d="m41.5 18h10.15a7.3 7.3 0 0 1 7.15 7.44v10.56c9.56 0 17.31-8 17.31-18s-7.75-18-17.31-18h-25z" fill="#00c9a7" fill-rule="evenodd"/></g><g mask="url(#c)"><path d="m58.49 43.27v10.56a7.36 7.36 0 0 1 -7.27 7.45h-10.33a17.61 17.61 0 1 0 35.21 0v-26z" fill="#00c9a7" fill-rule="evenodd"/></g><g mask="url(#d)"><path d="m35.23 60.18h-10.33a7.3 7.3 0 0 1 -7.29-7.31v-10.37a17.68 17.68 0 0 0 0 35.36h25.39z" fill="#00c9a7" fill-rule="evenodd"/></g><g fill-rule="evenodd"><path d="m106.77 18.93h4.5a4.85 4.85 0 0 1 4.85 4.85v27.74h12.47a4.85 4.85 0 0 1 4.86 4.84v3.48h-26.68z" fill="#555d64"/><path d="m171.91 43.44a18.67 18.67 0 0 1 -1.1 6.54 14.43 14.43 0 0 1 -3.28 5.18 15 15 0 0 1 -5.43 3.44 23.42 23.42 0 0 1 -15 0 15.16 15.16 0 0 1 -5.44-3.44 14.43 14.43 0 0 1 -3.32-5.16 18.9 18.9 0 0 1 -1.1-6.54v-24.53h4.21a4.85 4.85 0 0 1 4.85 4.85v19.32a9.39 9.39 0 0 0 .61 3.44 8.32 8.32 0 0 0 1.71 2.73 7.78 7.78 0 0 0 2.65 1.8 8.31 8.31 0 0 0 3.33.65 8.15 8.15 0 0 0 3.31-.65 7.86 7.86 0 0 0 2.62-1.8 8.15 8.15 0 0 0 1.71-2.73 9.39 9.39 0 0 0 .61-3.44v-19.32a4.85 4.85 0 0 1 4.85-4.85h4.21z" fill="#555d64"/><path d="m178.38 18.93h10.17a4.85 4.85 0 0 1 4.45 2.95l8 18.75 8.15-18.78a4.84 4.84 0 0 1 4.45-2.92h10.13v40.91h-4a4.85 4.85 0 0 1 -4.85-4.84v-26.54l-9.43 23.35a4.85 4.85 0 0 1 -4.5 3h-.14a4.87 4.87 0 0 1 -4.53-3.11l-8.94-23.27-.1 26.57a4.85 4.85 0 0 1 -4.85 4.83h-4z" fill="#00c9a7"/><path d="m230.19 18.93h28.28v3.47a4.85 4.85 0 0 1 -4.85 4.85h-14.26v7.63h13.89a4.16 4.16 0 1 1 0 8.32h-13.89v8.32h15.32a4.85 4.85 0 0 1 4.85 4.84v3.48h-29.34z" fill="#00c9a7"/><path d="m274.92 51.52h4.63a24.35 24.35 0 0 0 5.75-.64 12.16 12.16 0 0 0 4.6-2.11 10 10 0 0 0 3.1-3.87 13.74 13.74 0 0 0 1.08-5.9 11.42 11.42 0 0 0 -1.08-5.19 10.28 10.28 0 0 0 -3-3.67 13.19 13.19 0 0 0 -4.47-2.14 19.58 19.58 0 0 0 -5.35-.72h-5.26zm-8.92-32.59h13.38a38 38 0 0 1 9.24 1.07 21.14 21.14 0 0 1 7.63 3.56 17.44 17.44 0 0 1 5.18 6.44 21.72 21.72 0 0 1 1.91 9.54 19.59 19.59 0 0 1 -1.86 8.75 18.66 18.66 0 0 1 -5 6.36 22.27 22.27 0 0 1 -7.26 3.9 28.18 28.18 0 0 1 -8.64 1.33h-14.58z" fill="#00c9a7"/><path d="m313.25 59.84h5.82v-36.06a4.85 4.85 0 0 0 -4.85-4.85h-5.82v36.07a4.85 4.85 0 0 0 4.85 4.84z" fill="#00c9a7"/><path d="m353.45 30.78a8.93 8.93 0 0 0 -3.3-2.53 11.11 11.11 0 0 0 -4.54-.88 11.45 11.45 0 0 0 -4.77 1 11.25 11.25 0 0 0 -3.8 2.79 12.78 12.78 0 0 0 -2.52 4.25 16.18 16.18 0 0 0 0 10.7 13.18 13.18 0 0 0 2.48 4.23 11.21 11.21 0 0 0 3.71 2.78 10.69 10.69 0 0 0 4.6 1 10.28 10.28 0 0 0 5-1.17 9.87 9.87 0 0 0 3.57-3.29l7.61 5.69a15.91 15.91 0 0 1 -6.67 5.46 20.63 20.63 0 0 1 -8.31 1.75 25.42 25.42 0 0 1 -9-1.52 20.49 20.49 0 0 1 -7.08-4.37 19.78 19.78 0 0 1 -4.65-6.89 23.54 23.54 0 0 1 -1.67-9 23.56 23.56 0 0 1 1.67-9 19.88 19.88 0 0 1 4.65-6.89 20.64 20.64 0 0 1 7.08-4.37 25.65 25.65 0 0 1 9-1.52 21.41 21.41 0 0 1 3.66.32 21 21 0 0 1 3.74 1 17.23 17.23 0 0 1 3.54 1.88 14.07 14.07 0 0 1 3.03 2.8z" fill="#00c9a7"/></g></svg>