<svg width="145" height="156" fill="none" xmlns="http://www.w3.org/2000/svg"><g clip-path="url(#clip0)"><path d="M10.014 43.99L72.5 73.917M134.986 43.99L72.5 73.917M72.5 73.916l-62.486 37.727M134.986 111.643L72.5 73.916M134.986 111.643V43.991L72.5 10.169 10.014 43.99v67.652L72.5 145.465l62.486-33.822z" stroke="#B5E8DF" stroke-width="2.91" stroke-miterlimit="10"/><path d="M75.816 127.533H62.942V156H82.97v-21.35l-7.154-7.117z" fill="#F3F8F7"/><path d="M75.816 127.533H62.942V156H82.97v-21.35l-7.154-7.117z" fill="#F3F8F7"/><path d="M74.39 127.533H62.942v28.459H82.97v-19.923h-8.58v-8.536zm5.688 24.195H65.802v-1.426h14.276v1.426zm0-4.271H65.802v-1.427h14.276v1.427zm0-5.69v1.418H65.802v-1.418h14.276z" fill="#B5E8DF"/><path d="M75.816 127.533v7.117h7.154l-7.154-7.117z" fill="#B5E8DF"/><path d="M75.816 0H62.942v28.459H82.97V7.117L75.816 0z" fill="#F3F8F7"/><path d="M75.816 0H62.942v28.459H82.97V7.117L75.816 0z" fill="#F3F8F7"/><path d="M74.39 0H62.942v28.459H82.97V8.535h-8.58V0zm5.688 24.187H65.802v-1.419h14.276v1.419zm0-4.264H65.802v-1.426h14.276v1.426zm0-5.722v1.427H65.802V14.2h14.276z" fill="#B5E8DF"/><path d="M75.816 0v7.117h7.154L75.816 0z" fill="#B5E8DF"/><path d="M137.846 97.832h-12.873v28.466H145v-21.35l-7.154-7.116z" fill="#F3F8F7"/><path d="M137.846 97.832h-12.873v28.466H145v-21.35l-7.154-7.116z" fill="#F3F8F7"/><path d="M136.412 97.832H124.94v28.458h20.028v-19.923h-8.556v-8.535zm5.728 24.195h-14.308V120.6h14.308v1.427zm0-4.272h-14.308v-1.426h14.308v1.426zm0-5.69v1.419h-14.308v-1.419h14.308z" fill="#B5E8DF"/><path d="M137.846 97.832v7.116H145l-7.154-7.116z" fill="#B5E8DF"/><path d="M12.874 97.832H0v28.466h20.028v-21.35l-7.154-7.116z" fill="#F3F8F7"/><path d="M12.874 97.832H0v28.466h20.028v-21.35l-7.154-7.116z" fill="#F3F8F7"/><path d="M11.44 97.832H-.032v28.458h20.027v-19.923H11.44v-8.535zm5.728 24.195H2.86V120.6h14.308v1.427zm0-4.272H2.86v-1.426h14.308v1.426zm0-5.69v1.419H2.86v-1.419h14.308z" fill="#B5E8DF"/><path d="M12.874 97.832v7.116h7.154l-7.154-7.116z" fill="#B5E8DF"/><path d="M137.846 28.028h-12.873v28.459H145V35.145l-7.154-7.117z" fill="#F3F8F7"/><path d="M137.846 28.028h-12.873v28.459H145V35.145l-7.154-7.117z" fill="#F3F8F7"/><path d="M136.412 28.02H124.94v28.467h20.028V36.563h-8.556V28.02zm5.728 24.195h-14.308V50.79h14.308v1.426zm0-4.271h-14.308v-1.419h14.308v1.419zm0-5.69v1.434h-14.308v-1.434h14.308z" fill="#B5E8DF"/><path d="M137.846 28.028v7.117H145l-7.154-7.117z" fill="#B5E8DF"/><path d="M12.874 28.028H0v28.459h20.028V35.145l-7.154-7.117z" fill="#F3F8F7"/><path d="M12.874 28.028H0v28.459h20.028V35.145l-7.154-7.117z" fill="#F3F8F7"/><path d="M11.44 28.02H-.032v28.467h20.027V36.563H11.44V28.02zm5.728 24.195H2.86V50.79h14.308v1.426zm0-4.271H2.86v-1.419h14.308v1.419zm0-5.69v1.434H2.86v-1.434h14.308z" fill="#B5E8DF"/><path d="M12.874 28.028v7.117h7.154l-7.154-7.117z" fill="#B5E8DF"/><path d="M74.871 103.737c14.238 0 25.78-12.841 25.78-28.682 0-15.84-11.542-28.681-25.78-28.681-14.237 0-25.78 12.84-25.78 28.681 0 15.84 11.543 28.682 25.78 28.682z" fill="#F3F8F7"/><path d="M110.208 107.443L95.716 92.859l1.666-2.391a30.551 30.551 0 0 0 5.046-21.343 30.632 30.632 0 0 0-10.566-19.241 30.934 30.934 0 0 0-20.778-7.31 30.918 30.918 0 0 0-20.376 8.357 30.611 30.611 0 0 0-9.564 19.753 30.56 30.56 0 0 0 6.136 21.058 30.859 30.859 0 0 0 18.699 11.605 30.974 30.974 0 0 0 21.71-3.778l1.738-1.044 14.861 14.783a4.184 4.184 0 0 0 6.429-.629 4.138 4.138 0 0 0 .701-2.311 4.316 4.316 0 0 0-1.21-2.925zm-38.205-10.36c-4.69 0-9.274-1.384-13.174-3.976a23.617 23.617 0 0 1-8.733-10.586 23.476 23.476 0 0 1-1.35-13.63 23.552 23.552 0 0 1 6.49-12.078 23.752 23.752 0 0 1 12.141-6.456c4.6-.91 9.368-.443 13.7 1.343a23.687 23.687 0 0 1 10.643 8.688 23.502 23.502 0 0 1 3.996 13.105 23.559 23.559 0 0 1-6.955 16.671 23.807 23.807 0 0 1-16.758 6.919z" fill="#00C9A7"/><path d="M75.816 58.471H62.942V86.93H82.97V65.588l-7.154-7.117z" fill="#F3F8F7"/><path d="M75.816 58.471H62.942V86.93H82.97V65.588l-7.154-7.117z" fill="#F3F8F7"/><path d="M74.39 58.463H62.942V86.93H82.97V67.006h-8.58v-8.543zm5.688 24.195H65.802v-1.426h14.276v1.426zm0-4.272H65.802v-1.418h14.276v1.418zm0-5.69v1.427H65.802v-1.427h14.276z" fill="#00C9A7"/><path d="M75.816 58.471v7.117h7.154l-7.154-7.117z" fill="#00C9A7"/></g><defs><clipPath id="clip0"><path fill="#fff" d="M0 0h145v156H0z"/></clipPath></defs></svg>