<svg width="145" height="156" fill="none" xmlns="http://www.w3.org/2000/svg"><g clip-path="url(#clip0)"><path d="M10.014 43.99L72.5 73.917M134.986 43.99L72.5 73.917M72.5 73.916l-62.486 37.727M134.986 111.643L72.5 73.916M134.986 111.643V43.991L72.5 10.169 10.014 43.99v67.652L72.5 145.465l62.486-33.822z" stroke="#B5E8DF" stroke-width="2.91" stroke-miterlimit="10"/><path d="M75.817 127.534H62.943V156H82.97v-21.35l-7.153-7.116z" fill="#F3F8F7"/><path d="M75.817 127.534H62.943V156H82.97v-21.35l-7.153-7.116z" fill="#F3F8F7"/><path d="M74.39 127.534H62.944v28.458H82.97v-19.923h-8.58v-8.535z" fill="#B5E8DF"/><path d="M75.817 127.534v7.116h7.154l-7.154-7.116z" fill="#B5E8DF"/><path d="M75.817 0H62.943v28.459H82.97V7.117L75.817 0z" fill="#F3F8F7"/><path d="M75.817 0H62.943v28.459H82.97V7.117L75.817 0z" fill="#F3F8F7"/><path d="M74.39 0H62.944v28.459H82.97V8.535h-8.58V0z" fill="#B5E8DF"/><path d="M75.817 0v7.117h7.154L75.817 0z" fill="#B5E8DF"/><path d="M137.846 97.832h-12.874v28.466H145v-21.35l-7.154-7.116z" fill="#F3F8F7"/><path d="M137.846 97.832h-12.874v28.466H145v-21.35l-7.154-7.116z" fill="#F3F8F7"/><path d="M136.412 97.832H124.94v28.458h20.028v-19.923h-8.556v-8.535z" fill="#B5E8DF"/><path d="M137.846 97.832v7.116H145l-7.154-7.116z" fill="#B5E8DF"/><path d="M12.874 97.832H0v28.466h20.028v-21.35l-7.154-7.116z" fill="#F3F8F7"/><path d="M12.874 97.832H0v28.466h20.028v-21.35l-7.154-7.116z" fill="#F3F8F7"/><path d="M11.44 97.832H-.032v28.458h20.028v-19.923H11.44v-8.535z" fill="#B5E8DF"/><path d="M12.874 97.832v7.116h7.154l-7.154-7.116z" fill="#B5E8DF"/><path d="M137.846 28.028h-12.874v28.459H145V35.145l-7.154-7.117z" fill="#F3F8F7"/><path d="M137.846 28.028h-12.874v28.459H145V35.145l-7.154-7.117z" fill="#F3F8F7"/><path d="M136.412 28.02H124.94v28.467h20.028V36.563h-8.556V28.02z" fill="#B5E8DF"/><path d="M137.846 28.028v7.117H145l-7.154-7.117z" fill="#B5E8DF"/><path d="M12.874 28.028H0v28.459h20.028V35.145l-7.154-7.117z" fill="#F3F8F7"/><path d="M12.874 28.028H0v28.459h20.028V35.145l-7.154-7.117z" fill="#F3F8F7"/><path d="M11.44 28.02H-.032v28.467h20.028V36.563H11.44V28.02z" fill="#B5E8DF"/><path d="M12.874 28.028v7.117h7.154l-7.154-7.117z" fill="#B5E8DF"/><path d="M73.27 104.417c14.237 0 25.779-12.837 25.779-28.674 0-15.835-11.542-28.673-25.78-28.673-14.238 0-25.78 12.837-25.78 28.673 0 15.837 11.542 28.674 25.78 28.674z" fill="#F3F8F7"/><path d="M72.18 58.582l.632.064c1.559.095 3.085.487 4.495 1.155a7.527 7.527 0 013.092 2.637 6.757 6.757 0 011.05 3.004 6.546 6.546 0 01-.217 2.756 7.209 7.209 0 01-1.69 2.845 18.536 18.536 0 01-2.916 2.39 27.68 27.68 0 00-1.65 1.235 3.473 3.473 0 00-1.074 1.545c-.12.319-.257.63-.377.94a2.16 2.16 0 01-.786 1.035 2.18 2.18 0 01-1.24.4 2.842 2.842 0 01-1.474-.232 2.4 2.4 0 01-1.322-1.792 4.082 4.082 0 01.697-3.067 8.4 8.4 0 011.834-1.929c.801-.621 1.546-1.21 2.331-1.832a6.28 6.28 0 001.603-1.809 3.393 3.393 0 00-.409-3.768 3.129 3.129 0 00-1.746-.964 5.59 5.59 0 00-2.716.048 3.317 3.317 0 00-2.107 1.737c-.272.51-.513 1.035-.801 1.545-.186.393-.44.749-.753 1.052a2.607 2.607 0 01-1.97.63 2.734 2.734 0 01-1.25-.335 2.11 2.11 0 01-1.162-1.912 5.557 5.557 0 011.161-3.546 8.97 8.97 0 013.493-2.82 10.751 10.751 0 013.317-.948l.657-.064h1.297zM71.026 91.303c-.176 0-.352-.063-.52-.111a3.244 3.244 0 01-1.893-1.335 3.213 3.213 0 01.616-4.265 3.256 3.256 0 014.331.148 3.214 3.214 0 01.32 4.298 3.247 3.247 0 01-1.98 1.202l-.281.063h-.593z" fill="#DA4842"/><path d="M110.208 107.443L95.716 92.859l1.666-2.391a30.551 30.551 0 005.046-21.343 30.632 30.632 0 00-10.566-19.241 30.934 30.934 0 00-20.778-7.31 30.918 30.918 0 00-20.376 8.357 30.611 30.611 0 00-9.564 19.753 30.56 30.56 0 006.136 21.058 30.859 30.859 0 0018.699 11.605 30.974 30.974 0 0021.71-3.778l1.738-1.044 14.861 14.783a4.184 4.184 0 006.429-.629 4.138 4.138 0 00.701-2.311 4.316 4.316 0 00-1.21-2.925zm-38.205-10.36c-4.69 0-9.274-1.384-13.174-3.976a23.617 23.617 0 01-8.733-10.586 23.476 23.476 0 01-1.35-13.63 23.552 23.552 0 016.49-12.078 23.752 23.752 0 0112.141-6.456c4.6-.91 9.368-.443 13.7 1.343a23.687 23.687 0 0110.643 8.688 23.502 23.502 0 013.996 13.105 23.559 23.559 0 01-6.955 16.671 23.807 23.807 0 01-16.758 6.919z" fill="#DA4842"/></g><defs><clipPath id="clip0"><path fill="#fff" d="M0 0h145v159H0z"/></clipPath></defs></svg>
