<svg width="14" height="14" fill="none" xmlns="http://www.w3.org/2000/svg"><circle cx="7" cy="7" r="7" fill="#4BCA81"/><path fill-rule="evenodd" clip-rule="evenodd" d="M6.114 9.192L4.041 7.107a.197.197 0 0 1 0-.277l.277-.276a.197.197 0 0 1 .276 0l1.558 1.57c.05.05.138.05.188 0l3.053-3.078a.197.197 0 0 1 .277 0l.276.277a.197.197 0 0 1 0 .276L6.391 9.192a.178.178 0 0 1-.277 0z" fill="#000" stroke="#fff" stroke-width=".5"/><mask id="a" maskUnits="userSpaceOnUse" x="3" y="4" width="8" height="6"><path fill-rule="evenodd" clip-rule="evenodd" d="M6.114 9.192L4.041 7.107a.197.197 0 0 1 0-.277l.277-.276a.197.197 0 0 1 .276 0l1.558 1.57c.05.05.138.05.188 0l3.053-3.078a.197.197 0 0 1 .277 0l.276.277a.197.197 0 0 1 0 .276L6.391 9.192a.178.178 0 0 1-.277 0z" fill="#fff"/></mask><g mask="url(#a)"><path fill-rule="evenodd" clip-rule="evenodd" d="M3.733 3.733h7v7h-7v-7z" fill="#fff" stroke="#fff" stroke-width="5"/></g></svg>