<svg width="14" height="14" fill="none" xmlns="http://www.w3.org/2000/svg"><rect width="14" height="14" rx="1" fill="#FFB75D"/><path fill-rule="evenodd" clip-rule="evenodd" d="M7.978 6.973l2.334-2.351a.26.26 0 0 0 0-.377l-.36-.377a.26.26 0 0 0-.376 0L7.224 6.219a.174.174 0 0 1-.25 0L4.621 3.85a.26.26 0 0 0-.377 0l-.377.377a.26.26 0 0 0 0 .377l2.351 2.351a.174.174 0 0 1 0 .251L3.85 9.576a.26.26 0 0 0 0 .377l.377.377a.26.26 0 0 0 .377 0l2.351-2.352a.174.174 0 0 1 .251 0l2.352 2.351a.26.26 0 0 0 .377 0l.377-.376a.26.26 0 0 0 0-.377L7.978 7.224a.173.173 0 0 1 0-.25z" fill="#fff" stroke="#fff" stroke-width=".3"/><mask id="a" maskUnits="userSpaceOnUse" x="3" y="3" width="8" height="8"><path fill-rule="evenodd" clip-rule="evenodd" d="M7.978 6.973l2.334-2.351a.26.26 0 0 0 0-.377l-.36-.377a.26.26 0 0 0-.376 0L7.224 6.219a.174.174 0 0 1-.25 0L4.621 3.85a.26.26 0 0 0-.377 0l-.377.377a.26.26 0 0 0 0 .377l2.351 2.351a.174.174 0 0 1 0 .251L3.85 9.576a.26.26 0 0 0 0 .377l.377.377a.26.26 0 0 0 .377 0l2.351-2.352a.174.174 0 0 1 .251 0l2.352 2.351a.26.26 0 0 0 .377 0l.377-.376a.26.26 0 0 0 0-.377L7.978 7.224a.173.173 0 0 1 0-.25z" fill="#fff" stroke="#fff" stroke-width=".3"/></mask></svg>