<svg width="64" height="64" fill="none" xmlns="http://www.w3.org/2000/svg"><path fill="#F3F2F2" stroke="#DDDBDA" d="M0 0h64v64H0z"/><path fill-rule="evenodd" clip-rule="evenodd" d="M29.525 25.515l7.165 7.096a.543.543 0 0 1 0 .761l-7.165 7.096a.543.543 0 0 1-.761 0l-.762-.761a.543.543 0 0 1 0-.762l5.642-5.573a.543.543 0 0 0 0-.761l-5.607-5.573a.543.543 0 0 1 0-.762l.761-.761a.574.574 0 0 1 .727 0z" fill="#706E6B"/><mask id="a" maskUnits="userSpaceOnUse" x="27" y="25" width="10" height="16"><path fill-rule="evenodd" clip-rule="evenodd" d="M29.525 25.515l7.165 7.096a.543.543 0 0 1 0 .761l-7.165 7.096a.543.543 0 0 1-.761 0l-.762-.761a.543.543 0 0 1 0-.762l5.642-5.573a.543.543 0 0 0 0-.761l-5.607-5.573a.543.543 0 0 1 0-.762l.761-.761a.574.574 0 0 1 .727 0z" fill="#fff"/></mask><g mask="url(#a)"><path fill-rule="evenodd" clip-rule="evenodd" d="M23 24h18v18H23V24z" fill="#706E6B"/></g></svg>