<svg xmlns="http://www.w3.org/2000/svg" width="15" height="11" viewBox="0 0 15 11">
    <path fill="#FFFFFE" fill-rule="evenodd" d="M14.063 9.167a.883.883 0 0 1-.045.265l-4.174-4.39 4.219-3.209v7.334zm-12.396.892l4.23-4.408L7.5 6.836l1.534-1.192 4.3 4.415c-.068.015-11.6.015-11.667 0zm-.73-.892V1.833l4.22 3.209-4.175 4.39a.883.883 0 0 1-.044-.265zM13.595.917L7.5 5.5 1.406.917h12.188zM13.125 0H1.875C.84 0 0 .82 0 1.833v7.334C0 10.179.84 11 1.875 11h11.25C14.16 11 15 10.18 15 9.167V1.833C15 .821 14.16 0 13.125 0z"/>
</svg>
