<svg width="64" height="64" fill="none" xmlns="http://www.w3.org/2000/svg"><path fill-rule="evenodd" clip-rule="evenodd" d="M34.475 39.485L27.31 32.39a.543.543 0 0 1 0-.761l7.165-7.096a.543.543 0 0 1 .761 0l.762.761a.543.543 0 0 1 0 .762l-5.642 5.573a.543.543 0 0 0 0 .761l5.608 5.573a.544.544 0 0 1 0 .762l-.762.761a.574.574 0 0 1-.727 0z" fill="#706E6B"/><mask id="a" maskUnits="userSpaceOnUse" x="27" y="24" width="10" height="16"><path fill-rule="evenodd" clip-rule="evenodd" d="M34.475 39.485L27.31 32.39a.543.543 0 0 1 0-.761l7.165-7.096a.543.543 0 0 1 .761 0l.762.761a.543.543 0 0 1 0 .762l-5.642 5.573a.543.543 0 0 0 0 .761l5.608 5.573a.544.544 0 0 1 0 .762l-.762.761a.574.574 0 0 1-.727 0z" fill="#fff"/></mask><g mask="url(#a)"><path fill-rule="evenodd" clip-rule="evenodd" d="M41 41H23V23h18v18z" fill="#706E6B"/></g></svg>