<svg xmlns="http://www.w3.org/2000/svg" width="20" height="20" viewBox="0 0 20 20">
    <path fill="#8D8D8D" fill-rule="evenodd" d="M3.813 16.187A8.75 8.75 0 1 1 16.189 3.813 8.75 8.75 0 0 1 3.813 16.187zM17.07 2.93a9.998 9.998 0 0 0-14.142 0 9.998 9.998 0 0 0 0 14.142 9.998 9.998 0 0 0 14.142 0 9.998 9.998 0 0 0 0-14.142zm-3.977 10.165l-2.21-2.21 2.21-2.21a.626.626 0 0 0-.884-.884L10 10 7.79 7.79a.626.626 0 0 0-.884.884l2.21 2.21-2.21 2.21a.626.626 0 0 0 .884.883l2.21-2.21 2.21 2.21a.626.626 0 0 0 .884-.883z"/>
</svg>
